<mxfile host="app.diagrams.net" modified="2023-05-09T11:12:40.221Z" agent="Mozilla/5.0 (Windows NT 10.0; Win64; x64) AppleWebKit/537.36 (KHTML, like Gecko) Chrome/113.0.0.0 Safari/537.36 Edg/113.0.1774.35" etag="g0higUKsX_l55mZRhlyW" version="21.2.9" type="github">
  <diagram name="第 1 页" id="HLEUhcs507ry4ECzHawT">
    <mxGraphModel dx="1386" dy="806" grid="1" gridSize="10" guides="1" tooltips="1" connect="1" arrows="1" fold="1" page="1" pageScale="1" pageWidth="827" pageHeight="1169" math="0" shadow="0">
      <root>
        <mxCell id="0" />
        <mxCell id="1" parent="0" />
        <mxCell id="9GvXUM6sBcIh5jSZMesG-15" style="edgeStyle=orthogonalEdgeStyle;rounded=0;orthogonalLoop=1;jettySize=auto;html=1;" edge="1" parent="1" source="9GvXUM6sBcIh5jSZMesG-1" target="9GvXUM6sBcIh5jSZMesG-14">
          <mxGeometry relative="1" as="geometry" />
        </mxCell>
        <mxCell id="9GvXUM6sBcIh5jSZMesG-16" value="匀速消费" style="edgeLabel;html=1;align=center;verticalAlign=middle;resizable=0;points=[];" vertex="1" connectable="0" parent="9GvXUM6sBcIh5jSZMesG-15">
          <mxGeometry x="-0.2466" y="-3" relative="1" as="geometry">
            <mxPoint as="offset" />
          </mxGeometry>
        </mxCell>
        <mxCell id="9GvXUM6sBcIh5jSZMesG-1" value="MQ" style="shape=dataStorage;whiteSpace=wrap;html=1;fixedSize=1;fillColor=#6d8764;fontColor=#ffffff;strokeColor=#3A5431;" vertex="1" parent="1">
          <mxGeometry x="424" y="375" width="100" height="80" as="geometry" />
        </mxCell>
        <mxCell id="9GvXUM6sBcIh5jSZMesG-11" style="edgeStyle=orthogonalEdgeStyle;rounded=0;orthogonalLoop=1;jettySize=auto;html=1;exitX=1;exitY=0.5;exitDx=0;exitDy=0;" edge="1" parent="1" source="9GvXUM6sBcIh5jSZMesG-3" target="9GvXUM6sBcIh5jSZMesG-1">
          <mxGeometry relative="1" as="geometry" />
        </mxCell>
        <mxCell id="9GvXUM6sBcIh5jSZMesG-3" value="A服务" style="rounded=0;whiteSpace=wrap;html=1;" vertex="1" parent="1">
          <mxGeometry x="210" y="290" width="130" height="250" as="geometry" />
        </mxCell>
        <mxCell id="9GvXUM6sBcIh5jSZMesG-7" value="" style="endArrow=classic;html=1;" edge="1" parent="1">
          <mxGeometry width="50" height="50" relative="1" as="geometry">
            <mxPoint x="40" y="325" as="sourcePoint" />
            <mxPoint x="180" y="325" as="targetPoint" />
          </mxGeometry>
        </mxCell>
        <mxCell id="9GvXUM6sBcIh5jSZMesG-8" value="" style="endArrow=classic;html=1;" edge="1" parent="1">
          <mxGeometry width="50" height="50" relative="1" as="geometry">
            <mxPoint x="40" y="375" as="sourcePoint" />
            <mxPoint x="180" y="375" as="targetPoint" />
          </mxGeometry>
        </mxCell>
        <mxCell id="9GvXUM6sBcIh5jSZMesG-9" value="" style="endArrow=classic;html=1;" edge="1" parent="1">
          <mxGeometry width="50" height="50" relative="1" as="geometry">
            <mxPoint x="40" y="430" as="sourcePoint" />
            <mxPoint x="180" y="430" as="targetPoint" />
          </mxGeometry>
        </mxCell>
        <mxCell id="9GvXUM6sBcIh5jSZMesG-10" value="" style="endArrow=classic;html=1;" edge="1" parent="1">
          <mxGeometry width="50" height="50" relative="1" as="geometry">
            <mxPoint x="40" y="490" as="sourcePoint" />
            <mxPoint x="180" y="490" as="targetPoint" />
          </mxGeometry>
        </mxCell>
        <mxCell id="9GvXUM6sBcIh5jSZMesG-12" value="双11高QPS" style="text;html=1;align=center;verticalAlign=middle;resizable=0;points=[];autosize=1;strokeColor=none;fillColor=none;fontSize=14;" vertex="1" parent="1">
          <mxGeometry x="220" y="230" width="100" height="30" as="geometry" />
        </mxCell>
        <mxCell id="9GvXUM6sBcIh5jSZMesG-13" value="流量削峰" style="text;html=1;align=center;verticalAlign=middle;resizable=0;points=[];autosize=1;strokeColor=none;fillColor=none;fontSize=14;" vertex="1" parent="1">
          <mxGeometry x="434" y="230" width="80" height="30" as="geometry" />
        </mxCell>
        <mxCell id="9GvXUM6sBcIh5jSZMesG-14" value="B服务" style="whiteSpace=wrap;html=1;aspect=fixed;" vertex="1" parent="1">
          <mxGeometry x="670" y="375" width="80" height="80" as="geometry" />
        </mxCell>
        <mxCell id="9GvXUM6sBcIh5jSZMesG-17" value="QPS基本是平衡的" style="text;html=1;align=center;verticalAlign=middle;resizable=0;points=[];autosize=1;strokeColor=none;fillColor=none;fontSize=14;" vertex="1" parent="1">
          <mxGeometry x="640" y="230" width="140" height="30" as="geometry" />
        </mxCell>
      </root>
    </mxGraphModel>
  </diagram>
</mxfile>
